<svg width="42" height="42" viewBox="0 0 42 42" fill="none" xmlns="http://www.w3.org/2000/svg">
<path d="M21 40C31.4934 40 40 31.4934 40 21C40 10.5066 31.4934 2 21 2C10.5066 2 2 10.5066 2 21C2 31.4934 10.5066 40 21 40Z" stroke="#CCCCCC" stroke-width="4" stroke-linecap="round" stroke-linejoin="round"/>
<path d="M21.0001 25.2222C23.3319 25.2222 25.2223 23.3319 25.2223 21C25.2223 18.6681 23.3319 16.7778 21.0001 16.7778C18.6682 16.7778 16.7778 18.6681 16.7778 21C16.7778 23.3319 18.6682 25.2222 21.0001 25.2222Z" stroke="#CCCCCC" stroke-width="4" stroke-linecap="round" stroke-linejoin="round"/>
<path d="M21.0001 25.2222V40M16.7778 21L2.52783 16.7778M25.2223 21L39.4723 16.7778" stroke="#CCCCCC" stroke-width="4" stroke-linecap="round" stroke-linejoin="round"/>
</svg>
